<?xml version="1.0" encoding="utf-8"?>
<svg xmlns="http://www.w3.org/2000/svg" width="165" height="165" class="segno"><g transform="scale(5)"><path fill="#fff" d="M0 0h33v33h-33z"/><path class="qrline" stroke="#000" d="M4 4.5h7m1 0h1m2 0h1m2 0h1m1 0h1m1 0h7m-25 1h1m5 0h1m2 0h3m1 0h2m1 0h1m1 0h1m5 0h1m-25 1h1m1 0h3m1 0h1m1 0h1m1 0h4m2 0h1m1 0h1m1 0h3m1 0h1m-25 1h1m1 0h3m1 0h1m1 0h1m1 0h6m2 0h1m1 0h3m1 0h1m-25 1h1m1 0h3m1 0h1m1 0h1m5 0h3m1 0h1m1 0h3m1 0h1m-25 1h1m5 0h1m5 0h3m1 0h1m1 0h1m5 0h1m-25 1h7m1 0h1m1 0h1m1 0h1m1 0h1m1 0h1m1 0h7m-15 1h1m1 0h1m1 0h3m-17 1h4m2 0h1m1 0h2m1 0h1m2 0h4m2 0h3m1 0h1m-24 1h5m3 0h3m1 0h1m2 0h2m1 0h1m3 0h1m-21 1h1m2 0h1m1 0h1m1 0h2m1 0h1m2 0h1m2 0h1m-19 1h3m1 0h1m1 0h2m1 0h2m1 0h3m1 0h2m2 0h2m-22 1h2m3 0h1m2 0h1m3 0h2m2 0h4m1 0h3m-22 1h1m3 0h1m1 0h1m2 0h1m2 0h2m1 0h3m3 0h1m-24 1h1m2 0h1m1 0h3m1 0h1m1 0h2m3 0h1m2 0h1m1 0h2m-24 1h1m1 0h2m1 0h1m1 0h4m1 0h1m2 0h3m1 0h2m3 0h1m-22 1h2m1 0h2m2 0h1m2 0h1m2 0h9m-17 1h2m1 0h2m3 0h1m3 0h1m1 0h1m1 0h1m-25 1h7m3 0h1m5 0h1m1 0h1m1 0h1m1 0h3m-25 1h1m5 0h1m4 0h2m2 0h2m3 0h1m2 0h1m-24 1h1m1 0h3m1 0h1m2 0h1m4 0h1m1 0h6m-22 1h1m1 0h3m1 0h1m1 0h1m1 0h2m1 0h1m1 0h1m2 0h1m1 0h3m-23 1h1m1 0h3m1 0h1m1 0h4m1 0h1m1 0h4m1 0h1m1 0h2m-24 1h1m5 0h1m1 0h1m1 0h1m2 0h1m3 0h2m1 0h1m1 0h1m-23 1h7m1 0h1m1 0h5m4 0h6"/></g></svg>
